<mxfile host="app.diagrams.net" agent="Mozilla/5.0 (X11; Linux x86_64) AppleWebKit/537.36 (KHTML, like Gecko) Chrome/139.0.0.0 Safari/537.36" version="28.2.5">
  <diagram name="Page-1" id="Q7Ce9FwTM59Tk3tOPANz">
    <mxGraphModel dx="1595" dy="2108" grid="1" gridSize="10" guides="1" tooltips="1" connect="1" arrows="1" fold="1" page="1" pageScale="1" pageWidth="827" pageHeight="1169" math="0" shadow="0">
      <root>
        <mxCell id="0" />
        <mxCell id="1" parent="0" />
        <mxCell id="Q89PvAly5nBGCmxlc5zy-2" value="Establecimiento Educativo" style="swimlane;whiteSpace=wrap;html=1;" parent="1" vertex="1">
          <mxGeometry x="70" y="320" width="230" height="230" as="geometry" />
        </mxCell>
        <mxCell id="Q89PvAly5nBGCmxlc5zy-5" value="CUE_Establecimiento (PK): string&lt;div&gt;&lt;div&gt;nombre: string&lt;/div&gt;&lt;div&gt;sector: string&lt;/div&gt;&lt;div&gt;mail: string&lt;/div&gt;&lt;/div&gt;&lt;div&gt;telÃ©fono: string&lt;/div&gt;&lt;div&gt;&lt;div&gt;codigo_area: string&lt;/div&gt;&lt;/div&gt;&lt;div&gt;&lt;br&gt;&lt;/div&gt;" style="text;html=1;align=left;verticalAlign=top;whiteSpace=wrap;rounded=0;" parent="1" vertex="1">
          <mxGeometry x="80" y="350" width="210" height="190" as="geometry" />
        </mxCell>
        <mxCell id="Q89PvAly5nBGCmxlc5zy-6" value="Modalidad Educativa" style="swimlane;whiteSpace=wrap;html=1;" parent="1" vertex="1">
          <mxGeometry x="590" y="340" width="190" height="190" as="geometry" />
        </mxCell>
        <mxCell id="Q89PvAly5nBGCmxlc5zy-7" value="id_modalidad (PK): int&lt;div&gt;modalidad: string&lt;/div&gt;&lt;div&gt;sub_modalidad: string&lt;/div&gt;" style="text;html=1;align=left;verticalAlign=top;whiteSpace=wrap;rounded=0;" parent="Q89PvAly5nBGCmxlc5zy-6" vertex="1">
          <mxGeometry x="10" y="30" width="165.79" height="150" as="geometry" />
        </mxCell>
        <mxCell id="Q89PvAly5nBGCmxlc5zy-15" value="Establecimiento_Modalidad" style="swimlane;whiteSpace=wrap;html=1;" parent="1" vertex="1">
          <mxGeometry x="340" y="340" width="220" height="190" as="geometry" />
        </mxCell>
        <mxCell id="Q89PvAly5nBGCmxlc5zy-16" value="&lt;div&gt;CUE_Establecimiento (PK): string&lt;/div&gt;id_modalidad (PK): int&lt;div&gt;&lt;br&gt;&lt;/div&gt;" style="text;html=1;align=left;verticalAlign=top;whiteSpace=wrap;rounded=0;" parent="Q89PvAly5nBGCmxlc5zy-15" vertex="1">
          <mxGeometry x="10" y="30" width="200" height="150" as="geometry" />
        </mxCell>
        <mxCell id="Q89PvAly5nBGCmxlc5zy-17" value="" style="endArrow=none;html=1;rounded=0;exitX=0;exitY=0.5;exitDx=0;exitDy=0;entryX=1;entryY=0.5;entryDx=0;entryDy=0;" parent="1" source="Q89PvAly5nBGCmxlc5zy-15" target="Q89PvAly5nBGCmxlc5zy-2" edge="1">
          <mxGeometry width="50" height="50" relative="1" as="geometry">
            <mxPoint x="370" y="470" as="sourcePoint" />
            <mxPoint x="420" y="420" as="targetPoint" />
          </mxGeometry>
        </mxCell>
        <mxCell id="Q89PvAly5nBGCmxlc5zy-18" value="" style="endArrow=none;html=1;rounded=0;exitX=0;exitY=0.5;exitDx=0;exitDy=0;" parent="1" source="Q89PvAly5nBGCmxlc5zy-6" edge="1">
          <mxGeometry width="50" height="50" relative="1" as="geometry">
            <mxPoint x="580" y="434.65999999999997" as="sourcePoint" />
            <mxPoint x="560" y="435" as="targetPoint" />
          </mxGeometry>
        </mxCell>
        <mxCell id="Q89PvAly5nBGCmxlc5zy-19" value="Establecimiento_Ubicacion" style="swimlane;whiteSpace=wrap;html=1;" parent="1" vertex="1">
          <mxGeometry x="80" y="-40" width="210" height="190" as="geometry" />
        </mxCell>
        <mxCell id="Q89PvAly5nBGCmxlc5zy-20" value="&lt;div&gt;CUE_Establecimiento (PK): string&lt;/div&gt;&lt;div&gt;id_departamento: int&lt;/div&gt;&lt;div&gt;&lt;span style=&quot;background-color: transparent; color: light-dark(rgb(0, 0, 0), rgb(255, 255, 255));&quot;&gt;ambito: string&lt;/span&gt;&lt;/div&gt;&lt;div&gt;domicilio: string&lt;/div&gt;&lt;div&gt;codigo_postal: string&lt;/div&gt;&lt;div&gt;&lt;span style=&quot;background-color: transparent; color: light-dark(rgb(0, 0, 0), rgb(255, 255, 255));&quot;&gt;localidad: string&lt;/span&gt;&lt;/div&gt;&lt;div&gt;&lt;br&gt;&lt;/div&gt;" style="text;html=1;align=left;verticalAlign=top;whiteSpace=wrap;rounded=0;" parent="Q89PvAly5nBGCmxlc5zy-19" vertex="1">
          <mxGeometry x="10" y="30" width="190" height="150" as="geometry" />
        </mxCell>
        <mxCell id="Q89PvAly5nBGCmxlc5zy-22" value="" style="endArrow=none;html=1;rounded=0;entryX=0.5;entryY=1;entryDx=0;entryDy=0;exitX=0.5;exitY=0;exitDx=0;exitDy=0;" parent="1" source="Q89PvAly5nBGCmxlc5zy-2" target="Q89PvAly5nBGCmxlc5zy-19" edge="1">
          <mxGeometry width="50" height="50" relative="1" as="geometry">
            <mxPoint x="330" y="230" as="sourcePoint" />
            <mxPoint x="380" y="180" as="targetPoint" />
          </mxGeometry>
        </mxCell>
        <mxCell id="Q89PvAly5nBGCmxlc5zy-23" value="Actividad_Departamento" style="swimlane;whiteSpace=wrap;html=1;" parent="1" vertex="1">
          <mxGeometry x="570" y="-60" width="230" height="230" as="geometry" />
        </mxCell>
        <mxCell id="Q89PvAly5nBGCmxlc5zy-24" value="&lt;div&gt;id_departamento (PK): int&lt;/div&gt;clae6 (PK): string&lt;div&gt;&lt;span style=&quot;background-color: transparent; color: light-dark(rgb(0, 0, 0), rgb(255, 255, 255));&quot;&gt;genero (PK): string&lt;/span&gt;&lt;span style=&quot;background-color: transparent; color: light-dark(rgb(0, 0, 0), rgb(255, 255, 255)); white-space: pre;&quot;&gt;&#x9;&lt;/span&gt;&lt;/div&gt;&lt;div&gt;empleo: int&lt;/div&gt;&lt;div&gt;establecimiento: int&lt;/div&gt;&lt;div&gt;empresas_exportadores: int&lt;/div&gt;" style="text;html=1;align=left;verticalAlign=top;whiteSpace=wrap;rounded=0;" parent="1" vertex="1">
          <mxGeometry x="580" y="-30" width="210" height="190" as="geometry" />
        </mxCell>
        <mxCell id="Q89PvAly5nBGCmxlc5zy-25" value="Departamento_catalogo" style="swimlane;whiteSpace=wrap;html=1;" parent="1" vertex="1">
          <mxGeometry x="340" y="-40" width="190" height="190" as="geometry" />
        </mxCell>
        <mxCell id="Q89PvAly5nBGCmxlc5zy-26" value="&lt;div&gt;id_departamento (PK): int&lt;/div&gt;&lt;div&gt;provincia_id: int&lt;/div&gt;&lt;div&gt;departamento: string&lt;/div&gt;" style="text;html=1;align=left;verticalAlign=top;whiteSpace=wrap;rounded=0;" parent="Q89PvAly5nBGCmxlc5zy-25" vertex="1">
          <mxGeometry x="10" y="30" width="165.79" height="150" as="geometry" />
        </mxCell>
        <mxCell id="Q89PvAly5nBGCmxlc5zy-30" value="" style="endArrow=none;html=1;rounded=0;entryX=1;entryY=0.5;entryDx=0;entryDy=0;exitX=0;exitY=0.5;exitDx=0;exitDy=0;" parent="1" source="Q89PvAly5nBGCmxlc5zy-23" target="Q89PvAly5nBGCmxlc5zy-25" edge="1">
          <mxGeometry width="50" height="50" relative="1" as="geometry">
            <mxPoint x="570" y="50" as="sourcePoint" />
            <mxPoint x="720" y="40" as="targetPoint" />
          </mxGeometry>
        </mxCell>
        <mxCell id="Q89PvAly5nBGCmxlc5zy-31" value="Actividad_catalogo" style="swimlane;whiteSpace=wrap;html=1;" parent="1" vertex="1">
          <mxGeometry x="590" y="-280" width="190" height="190" as="geometry" />
        </mxCell>
        <mxCell id="Q89PvAly5nBGCmxlc5zy-32" value="clae6 (PK): string&lt;div&gt;&lt;span style=&quot;background-color: transparent; color: light-dark(rgb(0, 0, 0), rgb(255, 255, 255));&quot;&gt;descripcion: string&lt;/span&gt;&lt;/div&gt;" style="text;html=1;align=left;verticalAlign=top;whiteSpace=wrap;rounded=0;" parent="Q89PvAly5nBGCmxlc5zy-31" vertex="1">
          <mxGeometry x="10" y="30" width="165.79" height="150" as="geometry" />
        </mxCell>
        <mxCell id="Q89PvAly5nBGCmxlc5zy-33" value="" style="endArrow=none;html=1;rounded=0;entryX=0.5;entryY=1;entryDx=0;entryDy=0;exitX=0.5;exitY=0;exitDx=0;exitDy=0;" parent="1" source="Q89PvAly5nBGCmxlc5zy-23" target="Q89PvAly5nBGCmxlc5zy-31" edge="1">
          <mxGeometry width="50" height="50" relative="1" as="geometry">
            <mxPoint x="260" y="-390" as="sourcePoint" />
            <mxPoint x="310" y="-440" as="targetPoint" />
          </mxGeometry>
        </mxCell>
        <mxCell id="Q89PvAly5nBGCmxlc5zy-34" value="Poblacion_departamento" style="swimlane;whiteSpace=wrap;html=1;" parent="1" vertex="1">
          <mxGeometry x="340" y="-290" width="190" height="190" as="geometry" />
        </mxCell>
        <mxCell id="Q89PvAly5nBGCmxlc5zy-35" value="id_departamento (PK): int&lt;div&gt;&lt;span style=&quot;background-color: transparent; color: light-dark(rgb(0, 0, 0), rgb(255, 255, 255));&quot;&gt;edad (PK): int&lt;/span&gt;&lt;/div&gt;&lt;div&gt;&lt;span style=&quot;background-color: transparent; color: light-dark(rgb(0, 0, 0), rgb(255, 255, 255));&quot;&gt;casos (PK): int&lt;/span&gt;&lt;/div&gt;" style="text;html=1;align=left;verticalAlign=top;whiteSpace=wrap;rounded=0;" parent="Q89PvAly5nBGCmxlc5zy-34" vertex="1">
          <mxGeometry x="10" y="30" width="165.79" height="150" as="geometry" />
        </mxCell>
        <mxCell id="Q89PvAly5nBGCmxlc5zy-39" value="" style="endArrow=none;html=1;rounded=0;entryX=0.5;entryY=1;entryDx=0;entryDy=0;exitX=0.5;exitY=0;exitDx=0;exitDy=0;" parent="1" source="Q89PvAly5nBGCmxlc5zy-25" target="Q89PvAly5nBGCmxlc5zy-34" edge="1">
          <mxGeometry width="50" height="50" relative="1" as="geometry">
            <mxPoint x="350" y="-50" as="sourcePoint" />
            <mxPoint x="400" y="-100" as="targetPoint" />
          </mxGeometry>
        </mxCell>
        <mxCell id="Q89PvAly5nBGCmxlc5zy-44" value="" style="endArrow=none;html=1;rounded=0;exitX=0;exitY=0.5;exitDx=0;exitDy=0;entryX=1;entryY=0.5;entryDx=0;entryDy=0;" parent="1" source="Q89PvAly5nBGCmxlc5zy-25" target="Q89PvAly5nBGCmxlc5zy-19" edge="1">
          <mxGeometry width="50" height="50" relative="1" as="geometry">
            <mxPoint x="450" y="90" as="sourcePoint" />
            <mxPoint x="500" y="40" as="targetPoint" />
          </mxGeometry>
        </mxCell>
        <mxCell id="Q89PvAly5nBGCmxlc5zy-45" value="Provincia_catalogo" style="swimlane;whiteSpace=wrap;html=1;" parent="1" vertex="1">
          <mxGeometry x="359" y="170" width="150" height="150" as="geometry" />
        </mxCell>
        <mxCell id="Q89PvAly5nBGCmxlc5zy-46" value="&lt;div&gt;&lt;span style=&quot;background-color: transparent; color: light-dark(rgb(0, 0, 0), rgb(255, 255, 255));&quot;&gt;id_provincia (PK): int&lt;/span&gt;&lt;/div&gt;&lt;div&gt;&lt;span style=&quot;background-color: transparent; color: light-dark(rgb(0, 0, 0), rgb(255, 255, 255));&quot;&gt;provincia: string&lt;/span&gt;&lt;/div&gt;&lt;div&gt;&lt;br&gt;&lt;/div&gt;" style="text;html=1;align=left;verticalAlign=top;whiteSpace=wrap;rounded=0;" parent="Q89PvAly5nBGCmxlc5zy-45" vertex="1">
          <mxGeometry x="10" y="30" width="130" height="110" as="geometry" />
        </mxCell>
        <mxCell id="Q89PvAly5nBGCmxlc5zy-48" value="" style="endArrow=none;html=1;rounded=0;entryX=0.5;entryY=1;entryDx=0;entryDy=0;" parent="1" source="Q89PvAly5nBGCmxlc5zy-45" target="Q89PvAly5nBGCmxlc5zy-25" edge="1">
          <mxGeometry width="50" height="50" relative="1" as="geometry">
            <mxPoint x="360" y="270" as="sourcePoint" />
            <mxPoint x="410" y="220" as="targetPoint" />
          </mxGeometry>
        </mxCell>
      </root>
    </mxGraphModel>
  </diagram>
</mxfile>
